<svg id="Layer_1" data-name="Layer 1" xmlns="http://www.w3.org/2000/svg" viewBox="179 542 978 253"><defs><style>.cls-1{fill:#0056d2;}.cls-2{fill:#fe6f27;}</style></defs><path class="cls-1" d="M360.35,601.83v94.93q0,28.17-11.4,47.89a74,74,0,0,1-31.13,29.71q-19.71,10-44.5,10t-43.81-9.85a70.06,70.06,0,0,1-29.71-29.58q-10.71-19.73-10.71-48.17V552.25l55.21,25.22V696.76q0,16.9,7.46,26c5,6.11,12.55,9.17,22.68,9.17s17.79-3.1,23-9.3,7.74-14.83,7.74-25.92V576.6L319.05,583Z"/><polygon class="cls-1" points="429.32 631.08 429.32 784.39 429.2 784.33 426.01 782.88 425.9 782.83 422 781.05 421.91 781.01 383.08 763.28 383.07 763.26 374.31 759.27 374.21 759.23 374.21 605.85 429.32 631.08"/><polygon class="cls-1" points="539.67 620.92 539.67 696.53 532.49 699.82 530.8 700.58 507.02 711.45 487.87 720.19 484.56 721.7 484.56 656.24 484.44 656.18 481.25 654.73 477.23 652.89 477.15 652.86 438.32 635.12 429.54 631.12 429.44 631.07 429.44 570.55 484.56 595.73 535.61 619.06 539.67 620.92"/><path class="cls-1" d="M616,623.85v69.66q0,14,6.24,21t18,7q11.63,0,17.86-7t6.24-21V623.85h23.93v69.66q0,16.5-6.24,27.85a39.88,39.88,0,0,1-17.26,16.91,54.93,54.93,0,0,1-25,5.55q-21.71,0-34.69-12.78t-13-37.53V623.85Z"/><path class="cls-1" d="M787.43,653.56a38.33,38.33,0,0,1,14.74,16.34q5.3,10.7,5.3,25.13t-5.3,25.12a38.28,38.28,0,0,1-14.74,16.34,40.58,40.58,0,0,1-21.23,5.64q-11.79,0-20.13-5.56a30.45,30.45,0,0,1-11.87-14.84v63H710.45V649.08H734.2v19.08a30,30,0,0,1,11.87-14.76q8.34-5.48,20.13-5.48A40.58,40.58,0,0,1,787.43,653.56Zm-46.41,22q-7,7.22-7,19.49,0,12.11,7,19.32t17.77,7.21q11.12,0,17.86-7T783.38,695q0-12.45-6.73-19.57t-17.86-7.14Q748,668.32,741,675.54Z"/><rect class="cls-1" x="1078.36" y="649.22" width="24.1" height="93.22"/><path class="cls-1" d="M1146.74,617.39V741.9h-24.1V617.39Z"/><path class="cls-1" d="M927.34,664.27V648.61l-24.25,0V741.9l24.25,0q0-29.18.07-58.34L966.24,668l0-19.35h-9.36Z"/><path class="cls-1" d="M834,624.66l24.19-.06v24.57h25.92V668.5H858.15q0,26.38-.07,52.77h26v21.17l-50.11,0V668.5H816.67V649.17H834Z"/><path class="cls-1" d="M1058.42,708.23c-.06-11.06-.13-22.13-.22-33.3a34.82,34.82,0,0,0-5-12.1c-7.58-11.41-19.7-14.65-23.24-15.37-3.22-.64-6.23-.68-12.21-.74a61.34,61.34,0,0,0-13.5,1,48.88,48.88,0,0,0-8.36,2.87c-9.89,4.51-16.7,13-19.88,17.62l-.25.36.33.25c4,3.19,8.56,6.79,13.15,10.28l.4.31.27-.44a34.69,34.69,0,0,1,2.86-4,35.15,35.15,0,0,1,4.63-4.66,35.7,35.7,0,0,1,9.07-5.5,38.83,38.83,0,0,1,8.94-1,28.47,28.47,0,0,1,8,1,23.16,23.16,0,0,1,6.66,3c5.35,3.69,7.29,9.77,8,13v1.36a85.87,85.87,0,0,0-34,.11c-6.74,1.45-10.09,3.12-12.27,4.43-3.74,2.25-12.68,8.68-14.92,19.9l0,.19a25.62,25.62,0,0,0,0,11.73,27.68,27.68,0,0,0,4.11,8.57c7.67,11.23,20.38,14.93,20.49,15a39.9,39.9,0,0,0,11.78,1.77,41.29,41.29,0,0,0,24.69-8.19v6.62h20.67Q1058.51,725.23,1058.42,708.23Zm-61.92,5.55a13,13,0,0,1,3.51-10.94,14.68,14.68,0,0,1,5.91-3.63,40.68,40.68,0,0,1,13.24-1.83,104.28,104.28,0,0,1,18,1.78c.3,3.24.84,15.89-8.24,22.76a20.62,20.62,0,0,1-7.38,3.43,49.2,49.2,0,0,1-12.14,0,17.37,17.37,0,0,1-3.83-.92,15.29,15.29,0,0,1-5.47-3.53A13.24,13.24,0,0,1,996.5,713.78Z"/><rect class="cls-2" x="1077.94" y="611.54" width="24.93" height="24.1"/></svg>